<?xml version="1.0" encoding="UTF-8"?>
<!DOCTYPE svg PUBLIC "-//W3C//DTD SVG 1.1//EN" "http://www.w3.org/Graphics/SVG/1.1/DTD/svg11.dtd">
<!-- Creator: CorelDRAW 2020 (64-Bit) -->
<svg xmlns="http://www.w3.org/2000/svg" xml:space="preserve" width="205.74mm" height="62.089mm" version="1.1" style="shape-rendering:geometricPrecision; text-rendering:geometricPrecision; image-rendering:optimizeQuality; fill-rule:evenodd; clip-rule:evenodd"
viewBox="0 0 20574 6208.9"
 xmlns:xlink="http://www.w3.org/1999/xlink"
 xmlns:xodm="http://www.corel.com/coreldraw/odm/2003">
 <defs>
  <style type="text/css">
   <![CDATA[
    .fil0 {fill:#2B2A29;fill-rule:nonzero}
   ]]>
  </style>
 </defs>
 <g id="Слой_x0020_1">
  <metadata id="CorelCorpID_0Corel-Layer"/>
  <path class="fil0" d="M440.27 2433.45c0,485.63 0,885.27 -25.29,1097.74 -20.21,146.76 -45.51,258.04 -146.69,278.25 -45.57,10.11 -106.27,20.21 -151.77,20.21 -30.38,0 -40.49,15.19 -40.49,30.38 0,30.38 25.3,40.49 80.97,40.49 151.71,0 470.44,-15.19 495.74,-15.19 25.3,0 343.97,15.19 622.22,15.19 55.67,0 80.97,-15.19 80.97,-40.49 0,-15.19 -10.17,-30.38 -40.49,-30.38 -45.57,0 -156.86,-10.1 -227.66,-20.21 -151.77,-20.21 -182.09,-131.49 -197.28,-278.25 -25.29,-212.47 -25.29,-612.11 -25.29,-1097.74l0 -429.96c0,-35.46 10.1,-45.57 35.4,-45.57 85.99,0 637.41,0 763.88,15.19 156.8,20.21 237.77,111.29 263.06,182.15 20.21,60.7 25.3,131.5 30.32,182.09 0,25.3 10.17,45.51 35.46,45.51 35.4,0 35.4,-50.59 35.4,-96.1 0,-35.4 10.11,-237.76 20.21,-338.94 15.19,-166.97 40.49,-252.96 40.49,-283.27 0,-25.3 -5.09,-40.49 -25.3,-40.49 -20.21,0 -35.4,25.3 -55.67,50.59 -45.51,65.78 -111.29,80.97 -232.68,91.08 -70.8,5.02 -141.67,5.02 -227.66,5.02l-647.51 5.08c-30.38,0 -35.4,-15.19 -35.4,-45.5l0 -1396.27c0,-40.42 15.19,-55.61 45.5,-55.61l779.08 15.19c197.28,5.02 313.65,96.09 343.96,161.88 30.38,65.71 45.57,151.7 45.57,192.19 0,35.4 10.11,60.69 35.41,60.69 25.29,0 35.4,-30.31 40.48,-55.61 10.11,-60.69 20.21,-283.33 25.3,-333.86 15.12,-141.66 40.42,-202.36 40.42,-237.76 0,-25.3 -10.11,-45.57 -30.32,-45.57 -20.27,0 -40.48,20.27 -70.86,30.38 -45.51,15.19 -126.42,15.19 -222.58,20.21 -116.31,5.08 -1143.25,0 -1244.43,0l-207.38 -5.02c-111.36,-5.09 -247.94,-5.09 -364.24,-5.09 -55.68,0 -80.98,10.11 -80.98,40.49 0,20.21 20.28,30.32 40.49,30.32 45.51,0 131.5,5.08 171.98,15.19 166.97,35.4 207.45,116.37 217.56,288.35 10.1,161.88 10.1,303.55 10.1,1092.72l0 890.3zm3283.13 -541.24c0,-667.79 0,-789.18 5.02,-925.77 10.17,-151.77 35.46,-217.55 166.96,-242.84 50.59,-5.02 116.37,-10.11 146.69,-10.11 15.19,0 35.4,-15.19 35.4,-30.38 0,-25.3 -25.23,-35.4 -70.8,-35.4 -136.58,0 -470.45,10.1 -490.72,10.1 -25.3,0 -303.48,-10.1 -505.84,-10.1 -50.6,0 -70.81,10.1 -70.81,35.4 0,15.19 20.21,35.47 35.41,35.47 40.48,0 116.3,5.02 151.77,10.1 146.69,20.21 171.98,91.01 182.09,237.76 10.1,136.59 10.1,257.98 10.1,925.77l0 758.79c0,414.84 0,753.72 -25.29,930.78 -20.21,126.48 -30.32,207.45 -116.31,227.66 -40.49,10.11 -96.16,20.21 -136.58,20.21 -25.3,0 -35.47,20.28 -35.47,35.47 0,25.29 25.3,35.4 70.87,35.4 70.8,0 166.89,-5.09 257.97,-10.11 85.99,-5.08 161.88,-5.08 182.09,-5.08 131.56,0 283.33,5.08 485.7,10.1 207.38,10.11 455.25,15.2 773.99,15.2 237.76,0 252.89,-15.2 283.27,-116.38 35.4,-126.47 65.78,-384.45 65.78,-429.95 0,-45.58 -10.17,-65.79 -30.38,-65.79 -25.3,0 -40.49,25.3 -45.51,55.68 -15.19,85.99 -50.59,177 -106.27,242.78 -106.2,126.48 -303.48,131.57 -536.22,131.57 -349.05,0 -521.03,-30.38 -591.84,-101.18 -80.97,-75.89 -91.07,-333.93 -91.07,-966.25l0 -768.9zm1978 1532.78c-85.99,217.49 -171.99,369.26 -374.35,394.56 -35.4,5.08 -101.18,10.1 -131.56,10.1 -20.21,0 -40.42,15.19 -40.42,35.47 0,25.29 30.31,35.4 85.99,35.4 182.09,0 404.66,-15.19 450.23,-15.19 50.59,0 293.38,15.19 399.64,15.19 40.42,0 65.72,-10.11 65.72,-35.4 0,-20.28 -10.11,-35.47 -45.51,-35.47l-40.48 0c-75.89,0 -151.77,-30.31 -151.77,-116.3 0,-75.89 25.29,-182.16 65.78,-288.36l252.95 -688c10.11,-25.29 25.3,-35.4 45.51,-35.4l1026.94 0c25.3,0 30.38,5.02 40.49,25.3l399.64 986.46c30.31,70.8 -15.19,106.2 -40.49,116.3 -20.21,10.17 -30.38,10.17 -30.38,30.38 0,25.3 70.87,25.3 156.86,30.38 308.56,10.11 637.4,10.11 703.19,10.11 50.59,0 101.11,-10.11 101.11,-35.4 0,-25.3 -30.31,-35.47 -55.61,-35.47 -45.5,0 -111.29,-5.02 -177.07,-25.29 -96.09,-30.32 -217.49,-85.99 -379.43,-470.44 -273.16,-652.6 -986.45,-2428.17 -1067.36,-2610.32 -45.51,-96.1 -60.7,-156.8 -106.27,-156.8 -30.31,0 -50.52,25.3 -106.2,166.9l-1047.15 2691.29zm642.42 -900.46c-15.12,0 -20.21,-10.11 -15.12,-30.38l414.76 -1178.65c25.3,-65.79 50.6,-65.79 75.89,0l440.13 1178.65c5.08,20.27 5.08,30.38 -15.19,30.38l-900.47 0zm2691.29 945.97c-141.6,217.55 -232.67,298.46 -364.24,333.86 -65.71,15.19 -131.49,25.29 -166.89,25.29 -25.3,0 -35.41,20.28 -35.41,40.49 0,15.19 5.02,30.38 40.43,30.38 146.75,0 369.32,-15.19 404.72,-15.19 40.49,0 333.86,15.19 440.13,15.19 30.32,0 55.61,-10.11 55.61,-30.38 0,-20.21 -15.12,-40.49 -40.42,-40.49 -20.28,0 -55.68,-5.02 -80.97,-10.1 -40.49,-10.11 -70.8,-30.32 -70.8,-70.8 0,-45.51 15.12,-121.39 55.61,-192.26l682.98 -1128.06c268.07,435.04 510.92,849.87 753.71,1269.73 40.48,70.8 0,116.37 -25.3,121.39 -15.19,5.08 -25.29,20.27 -25.29,35.4 0,20.27 20.27,30.38 136.58,35.46 242.85,10.11 455.32,10.11 728.48,10.11 40.49,0 60.7,-15.19 60.7,-35.4 0,-20.28 -10.11,-35.47 -35.4,-35.47 -25.3,0 -91.08,-10.1 -151.77,-25.29 -131.5,-35.4 -182.09,-96.1 -252.96,-187.18 -96.1,-116.3 -854.89,-1365.82 -940.89,-1497.38l713.3 -1042.07c126.41,-187.17 207.38,-298.46 333.86,-338.94 50.59,-15.19 116.37,-20.21 151.77,-20.21 30.32,0 45.51,-25.3 45.51,-40.49 0,-20.28 -20.21,-30.38 -70.81,-30.38 -151.77,0 -333.92,10.1 -374.34,10.1 -40.49,0 -227.66,-10.1 -394.62,-10.1 -55.61,0 -75.89,10.1 -75.89,30.38 0,20.21 15.19,40.49 40.49,40.49 25.29,0 75.88,0 121.39,10.1 45.57,15.19 75.88,40.42 75.88,70.8 0,50.59 -10.1,91.08 -45.5,151.77 -40.49,91.08 -510.93,814.48 -642.49,1001.65 -232.68,-369.33 -399.64,-677.89 -586.82,-1016.84 -25.29,-45.5 -45.5,-101.18 -45.5,-141.66 0,-30.32 15.19,-60.7 55.67,-65.72 35.4,-10.1 91.01,-10.1 121.39,-10.1 25.3,0 40.49,-20.28 40.49,-40.49 0,-20.28 -15.19,-30.38 -75.89,-30.38 -151.77,0 -394.62,10.1 -435.04,10.1 -35.46,0 -394.62,-10.1 -521.1,-10.1 -55.61,0 -75.88,10.1 -75.88,30.38 0,15.19 15.19,40.49 40.48,40.49 25.3,0 116.37,10.1 187.18,30.31 151.77,45.51 237.76,166.96 338.94,333.86l708.21 1153.42 -799.29 1234.33zm4522.61 -3176.86l636.56 10.1c484.78,10.11 606.17,126.48 621.36,278.19l5.09 55.67c5.02,70.8 15.12,86 40.42,86 21.12,0 36.25,-20.22 36.25,-65.79 0,-55.61 15.19,-404.66 15.19,-556.43 0,-30.38 0,-60.7 -25.3,-60.7 -20.21,0 -66.56,15.19 -142.45,25.3 -80.97,15.19 -197.34,25.29 -358.37,25.29l-1896.18 0c-60.7,0 -252.96,-10.1 -399.64,-25.29 -136.59,-10.11 -187.18,-60.7 -222.58,-60.7 -20.21,0 -40.48,65.72 -50.59,96.1 -10.1,40.49 -111.28,475.53 -111.28,526.12 0,30.31 10.1,45.5 25.29,45.5 20.21,0 35.4,-10.1 50.59,-50.59 15.19,-35.4 30.32,-70.8 85.99,-156.79 80.91,-121.46 202.37,-156.86 516.02,-161.88l748.69 -10.1 0 2139.81c0,485.63 0,885.27 -25.3,1097.74 -20.27,146.76 -45.57,258.04 -146.75,278.25 -45.5,10.11 -106.2,20.21 -151.71,20.21 -30.38,0 -40.48,15.19 -40.48,30.38 0,30.38 25.29,40.49 80.91,40.49 151.77,0 470.5,-15.19 495.8,-15.19 25.29,0 343.12,15.19 621.37,15.19 55.61,0 80.9,-15.19 80.9,-40.49 0,-15.19 -10.1,-30.38 -40.42,-30.38 -45.57,0 -156.86,-10.1 -227.66,-20.21 -150.92,-20.21 -181.3,-131.49 -196.43,-278.25 -25.29,-212.47 -25.29,-612.11 -25.29,-1097.74l0 -2139.81zm1578.29 3131.35c-85.99,217.49 -171.98,369.26 -374.35,394.56 -35.4,5.08 -101.18,10.1 -131.56,10.1 -20.21,0 -40.42,15.19 -40.42,35.47 0,25.29 30.32,35.4 85.99,35.4 182.09,0 404.66,-15.19 450.23,-15.19 50.6,0 293.38,15.19 399.65,15.19 40.42,0 65.71,-10.11 65.71,-35.4 0,-20.28 -10.1,-35.47 -45.5,-35.47l-40.49 0c-75.89,0 -151.77,-30.31 -151.77,-116.3 0,-75.89 25.29,-182.16 65.78,-288.36l252.95 -688c10.11,-25.29 25.3,-35.4 45.51,-35.4l1026.94 0c25.3,0 30.38,5.02 40.49,25.3l399.64 986.46c30.32,70.8 -15.19,106.2 -40.49,116.3 -20.21,10.17 -30.38,10.17 -30.38,30.38 0,25.3 70.87,25.3 156.86,30.38 308.57,10.11 637.41,10.11 703.19,10.11 50.59,0 101.11,-10.11 101.11,-35.4 0,-25.3 -30.31,-35.47 -55.61,-35.47 -45.5,0 -111.28,-5.02 -177.06,-25.29 -96.1,-30.32 -217.49,-85.99 -379.44,-470.44 -273.16,-652.6 -986.45,-2428.17 -1067.36,-2610.32 -45.5,-96.1 -60.69,-156.8 -106.27,-156.8 -30.31,0 -50.52,25.3 -106.2,166.9l-1047.15 2691.29zm642.43 -900.46c-15.13,0 -20.21,-10.11 -15.13,-30.38l414.77 -1178.65c25.29,-65.79 50.59,-65.79 75.88,0l440.13 1178.65c5.09,20.27 5.09,30.38 -15.19,30.38l-900.46 0zm2883.48 126.47c0,414.84 0,753.72 -25.3,930.78 -20.21,126.48 -30.31,207.45 -116.3,227.66 -40.49,10.11 -96.16,20.21 -136.58,20.21 -25.3,0 -35.47,20.28 -35.47,35.47 0,25.29 25.3,35.4 70.87,35.4 136.58,0 424.93,-15.19 440.06,-15.19 20.27,0 313.65,15.19 556.5,15.19 50.59,0 70.8,-15.19 70.8,-35.4 0,-15.19 -10.11,-35.47 -35.4,-35.47 -40.49,0 -136.58,-10.1 -197.28,-20.21 -136.58,-20.21 -161.88,-101.18 -177.07,-227.66 -20.21,-177.06 -20.21,-515.94 -20.21,-930.78l0 -1750.34c0,-45.5 10.11,-75.88 35.4,-80.97 45.51,-10.1 171.99,-30.31 247.87,-30.31 101.18,0 369.26,-25.3 602.01,207.38 237.76,232.74 252.95,510.93 252.95,652.6 0,389.53 -344.03,693.08 -824.58,693.08 -91.07,0 -116.37,10.1 -116.37,45.5 0,20.21 25.3,40.49 45.51,40.49 25.29,5.02 101.18,5.02 126.47,5.02 682.91,0 1148.34,-409.75 1148.34,-1026.94 0,-232.68 -121.39,-424.94 -222.58,-515.95 -75.88,-65.78 -278.25,-242.85 -849.87,-242.85 -202.36,0 -536.22,10.1 -632.32,10.1 -35.47,0 -313.65,-10.1 -516.02,-10.1 -50.59,0 -70.8,10.1 -70.8,35.4 0,15.19 20.21,35.47 35.4,35.47 40.49,0 116.31,5.02 151.78,10.1 146.68,20.21 171.98,91.01 182.08,237.76 10.11,136.59 10.11,257.98 10.11,925.77l0 758.79z"/>
  <path class="fil0" d="M1021.99 6108.4c69.32,-10.92 133.75,-35.27 193.33,-72.94l58.4 60.17c-111.88,69.32 -233.52,104 -364.87,104 -124.02,0 -240.46,-30.11 -349.31,-90.32 -108.88,-60.18 -195.81,-142.27 -260.87,-246.26 -65.06,-103.99 -97.61,-216.47 -97.61,-337.48 0,-121.02 32.55,-233.49 97.61,-337.49 65.06,-103.99 151.99,-186.08 260.87,-246.26 108.85,-60.21 225.29,-90.32 349.31,-90.32 148.41,0 282.79,43.78 403.18,131.35l-80.27 82.08c-41.34,-32.82 -85.44,-59.58 -132.26,-80.27 -46.81,-20.65 -95.76,-34.95 -146.86,-42.84 -51.08,-7.92 -102.74,-7.6 -155.04,0.91 -98.51,15.8 -181.82,56.24 -249.92,121.3 -68.13,65.06 -114.63,145.65 -139.58,241.72 -24.9,96.08 -27.03,197.63 -6.38,304.66 31.64,162.95 105.49,292.48 221.66,388.55 116.14,96.08 249.02,132.57 398.61,109.44zm2121.99 -1256.9c114.32,0 222.89,30.11 325.66,90.32 102.74,60.18 185.14,142.27 247.17,246.26 62.02,104 93.04,216.19 93.04,336.58 0,120.39 -31.02,232.9 -93.04,337.48 -62.03,104.59 -144.43,186.68 -247.17,246.26 -102.77,59.59 -211.34,89.41 -325.66,89.41 -86.34,0 -169.93,-17.65 -250.83,-52.92 -80.86,-35.27 -151.4,-82.99 -211.61,-143.2 -60.18,-60.18 -108.53,-131.94 -145.02,-215.25 -36.49,-83.31 -54.74,-170.28 -54.74,-260.87 0,-90.6 18.25,-177.85 54.74,-261.79 36.49,-83.9 84.84,-155.66 145.02,-215.24 60.21,-59.62 130.75,-107.35 211.61,-143.21 80.9,-35.9 164.49,-53.83 250.83,-53.83zm104 1256.9c90,-15.8 166.3,-57.46 228.95,-124.96 62.62,-67.5 105.5,-150.18 128.59,-248.07 23.13,-97.93 24.94,-200.39 5.48,-307.41 -29.17,-161.74 -96.98,-288.82 -203.39,-381.27 -106.43,-92.41 -228.95,-127.09 -367.59,-103.96 -90,14.58 -165.7,54.7 -227.14,120.39 -61.4,65.65 -103.05,146.24 -124.96,241.72 -21.87,95.45 -23.09,197.32 -3.63,305.57 29.2,162.95 96.08,292.48 200.67,388.55 104.58,96.08 225.6,132.57 363.02,109.44zm2448.56 -647.58c46.19,17.02 88.15,34.05 125.86,51.07 37.72,17.02 77.24,38.3 118.58,63.84 41.34,25.54 76.02,52.29 103.96,80.27 27.98,27.98 51.11,60.81 69.35,98.52 18.21,37.68 27.35,77.83 27.35,120.39 0,59.59 -14.58,111.88 -43.78,156.88 -29.2,45 -68.41,80.27 -117.67,105.81 -49.26,25.54 -102.46,44.69 -159.6,57.46 -57.18,12.77 -117.39,19.15 -180.6,19.15 -128.94,0 -235.94,-26.76 -321.09,-80.27 -85.12,-53.52 -140.45,-131.35 -165.99,-233.49l125.87 -25.54c38.9,173.91 170.24,260.88 394.03,260.88 81.5,0 150.82,-22.5 207.96,-67.51 57.18,-45 85.75,-102.77 85.75,-173.31 0,-23.09 -3.35,-43.78 -10.05,-62.03 -6.66,-18.24 -18.84,-35.58 -36.49,-51.98 -17.62,-16.43 -34.05,-30.42 -49.22,-41.96 -15.21,-11.55 -39.84,-24.63 -73.89,-39.22 -34.05,-14.58 -62.03,-26.16 -83.94,-34.67 -21.87,-8.51 -55.92,-20.65 -102.14,-36.49 -3.67,-2.41 -6.7,-3.94 -9.14,-4.54 -2.41,-0.63 -5.44,-1.53 -9.11,-2.75 -3.66,-1.22 -6.7,-2.41 -9.1,-3.63 -6.11,-2.44 -14.62,-5.48 -25.57,-9.14 -37.68,-13.36 -66.25,-23.72 -85.72,-31.01 -19.46,-7.3 -46.54,-18.53 -81.18,-33.74 -34.67,-15.21 -61.71,-29.2 -81.18,-41.97 -19.46,-12.77 -41.65,-29.16 -66.59,-49.26 -24.95,-20.05 -43.79,-40.74 -56.55,-62.02 -12.77,-21.28 -24,-45.91 -33.74,-73.86 -9.73,-27.97 -14.61,-58.39 -14.61,-91.22 0,-35.27 9.41,-72.08 28.29,-110.38 18.84,-38.3 45.91,-75.07 81.18,-110.34 35.27,-35.27 84.21,-64.47 146.83,-87.57 62.66,-23.13 132.88,-34.67 210.71,-34.67 224.98,0 389.19,79.64 492.55,238.96l-116.76 43.79c-92.41,-143.49 -216.47,-215.25 -372.13,-215.25 -43.78,0 -83.62,5.16 -119.48,15.49 -35.9,10.36 -64.47,23.41 -85.75,39.25 -21.28,15.8 -39.84,33.73 -55.64,53.79 -15.81,20.06 -26.17,40.15 -31.02,60.21 -4.88,20.06 -8.51,38.9 -10.95,56.55 -2.44,17.62 -1.22,32.52 3.66,44.69 3.63,15.8 9.42,30.42 17.34,43.78 7.89,13.4 15.8,25.23 23.69,35.59 7.92,10.32 20.37,20.96 37.4,31.92 17.02,10.95 31.01,19.74 41.96,26.44 10.96,6.7 29.48,15.21 55.65,25.54 26.13,10.36 46.22,18.24 60.21,23.72 13.95,5.48 38.3,14.3 72.95,26.44 34.67,12.18 60.52,21.28 77.55,27.39zm3035.96 -581.97l173.31 0 0 1300.72 -178.78 0 0 -1125.56 -547.29 996.03 -576.45 -879.3 0 1008.83 -80.28 0 0 -1300.72 142.3 0 580.12 882.96 487.07 -882.96zm1815.56 820.93l0 395.85 702.32 0 -63.84 83.94 -833.7 0 0 -1300.72 45.63 0 868.34 0 -80.27 80.28 -638.48 0 0 373.97 0 62.03 693.21 0 -63.87 80.27 -629.34 0 0 98.52 -1.85 0 0 125.86 1.85 0zm1915.85 -824.55l1163.9 0 -27.39 80.27 -456.06 0 0 1224.07 -197 0 0 -1224.07 -456.06 0 -27.39 -80.27zm2587.24 3.62l72.94 0 0 1300.72 -198.85 0 0 -1224.07 0 -76.65 125.91 0zm2277.09 1229.55c69.32,-10.92 133.75,-35.27 193.34,-72.94l58.4 60.17c-111.88,69.32 -233.53,104 -364.87,104 -124.02,0 -240.47,-30.11 -349.31,-90.32 -108.88,-60.18 -195.82,-142.27 -260.88,-246.26 -65.06,-103.99 -97.61,-216.47 -97.61,-337.48 0,-121.02 32.55,-233.49 97.61,-337.49 65.06,-103.99 152,-186.08 260.88,-246.26 108.84,-60.21 225.29,-90.32 349.31,-90.32 148.4,0 282.78,43.78 403.17,131.35l-80.27 82.08c-41.34,-32.82 -85.44,-59.58 -132.25,-80.27 -46.82,-20.65 -95.76,-34.95 -146.87,-42.84 -51.07,-7.92 -102.74,-7.6 -155.03,0.91 -98.52,15.8 -181.83,56.24 -249.92,121.3 -68.14,65.06 -114.64,145.65 -139.58,241.72 -24.91,96.08 -27.04,197.63 -6.39,304.66 31.64,162.95 105.5,292.48 221.67,388.55 116.13,96.08 249.01,132.57 398.6,109.44zm2109.26 -647.58c46.19,17.02 88.16,34.05 125.87,51.07 37.71,17.02 77.24,38.3 118.58,63.84 41.34,25.54 76.01,52.29 103.96,80.27 27.98,27.98 51.1,60.81 69.35,98.52 18.21,37.68 27.35,77.83 27.35,120.39 0,59.59 -14.58,111.88 -43.78,156.88 -29.2,45 -68.41,80.27 -117.67,105.81 -49.26,25.54 -102.46,44.69 -159.6,57.46 -57.18,12.77 -117.39,19.15 -180.61,19.15 -128.93,0 -235.93,-26.76 -321.08,-80.27 -85.13,-53.52 -140.45,-131.35 -165.99,-233.49l125.87 -25.54c38.89,173.91 170.24,260.88 394.03,260.88 81.49,0 150.81,-22.5 207.95,-67.51 57.18,-45 85.75,-102.77 85.75,-173.31 0,-23.09 -3.35,-43.78 -10.04,-62.03 -6.67,-18.24 -18.84,-35.58 -36.49,-51.98 -17.62,-16.43 -34.05,-30.42 -49.23,-41.96 -15.21,-11.55 -39.84,-24.63 -73.89,-39.22 -34.04,-14.58 -62.02,-26.16 -83.93,-34.67 -21.87,-8.51 -55.92,-20.65 -102.15,-36.49 -3.66,-2.41 -6.69,-3.94 -9.14,-4.54 -2.4,-0.63 -5.44,-1.53 -9.1,-2.75 -3.66,-1.22 -6.7,-2.41 -9.11,-3.63 -6.1,-2.44 -14.61,-5.48 -25.57,-9.14 -37.67,-13.36 -66.25,-23.72 -85.71,-31.01 -19.47,-7.3 -46.54,-18.53 -81.18,-33.74 -34.68,-15.21 -61.71,-29.2 -81.18,-41.97 -19.47,-12.77 -41.65,-29.16 -66.6,-49.26 -24.94,-20.05 -43.78,-40.74 -56.55,-62.02 -12.76,-21.28 -24,-45.91 -33.73,-73.86 -9.73,-27.97 -14.62,-58.39 -14.62,-91.22 0,-35.27 9.42,-72.08 28.29,-110.38 18.84,-38.3 45.91,-75.07 81.18,-110.34 35.27,-35.27 84.22,-64.47 146.84,-87.57 62.65,-23.13 132.88,-34.67 210.71,-34.67 224.97,0 389.18,79.64 492.55,238.96l-116.76 43.79c-92.42,-143.49 -216.47,-215.25 -372.13,-215.25 -43.78,0 -83.62,5.16 -119.48,15.49 -35.9,10.36 -64.47,23.41 -85.75,39.25 -21.28,15.8 -39.84,33.73 -55.65,53.79 -15.8,20.06 -26.16,40.15 -31.01,60.21 -4.88,20.06 -8.51,38.9 -10.95,56.55 -2.45,17.62 -1.22,32.52 3.66,44.69 3.63,15.8 9.42,30.42 17.34,43.78 7.88,13.4 15.8,25.23 23.69,35.59 7.91,10.32 20.37,20.96 37.39,31.92 17.03,10.95 31.02,19.74 41.97,26.44 10.95,6.7 29.48,15.21 55.64,25.54 26.13,10.36 46.23,18.24 60.22,23.72 13.95,5.48 38.3,14.3 72.94,26.44 34.68,12.18 60.53,21.28 77.55,27.39z"/>
 </g>
</svg>
